<mxfile host="app.diagrams.net" agent="Mozilla/5.0 (Macintosh; Intel Mac OS X 10.15; rv:137.0) Gecko/20100101 Firefox/137.0" version="26.2.13">
  <diagram name="Page-1" id="MmZFGI71FLo9yxfiL6Yl">
    <mxGraphModel dx="791" dy="961" grid="1" gridSize="10" guides="1" tooltips="1" connect="1" arrows="1" fold="1" page="1" pageScale="1" pageWidth="850" pageHeight="1100" math="0" shadow="0">
      <root>
        <mxCell id="0" />
        <mxCell id="1" parent="0" />
        <mxCell id="jrIIb6_KZtd7FNzPWrRN-1" value="" style="rounded=1;whiteSpace=wrap;html=1;perimeterSpacing=0;arcSize=1;fillColor=light-dark(#FFCD28,#B95E00);strokeColor=#d79b00;gradientColor=none;fillStyle=auto;movable=1;resizable=1;rotatable=1;deletable=1;editable=1;locked=0;connectable=1;" vertex="1" parent="1">
          <mxGeometry x="880" y="40" width="450" height="890" as="geometry" />
        </mxCell>
        <mxCell id="jrIIb6_KZtd7FNzPWrRN-2" value="CyberHub-Node-1" style="rounded=1;whiteSpace=wrap;html=1;fillColor=light-dark(#FFFFFF,#4D9900);" vertex="1" parent="1">
          <mxGeometry x="890" y="90" width="120" height="60" as="geometry" />
        </mxCell>
        <mxCell id="jrIIb6_KZtd7FNzPWrRN-3" value="CyberHub-Node-2" style="rounded=1;whiteSpace=wrap;html=1;fillColor=light-dark(#FFFFFF,#4D9900);" vertex="1" parent="1">
          <mxGeometry x="890" y="160" width="120" height="60" as="geometry" />
        </mxCell>
        <mxCell id="jrIIb6_KZtd7FNzPWrRN-4" value="CyberHub-Node-3" style="rounded=1;whiteSpace=wrap;html=1;fillColor=light-dark(#FFFFFF,#4D9900);" vertex="1" parent="1">
          <mxGeometry x="890" y="230" width="120" height="60" as="geometry" />
        </mxCell>
        <mxCell id="jrIIb6_KZtd7FNzPWrRN-5" value="CyberHub-Node-4" style="rounded=1;whiteSpace=wrap;html=1;fillColor=light-dark(#FFFFFF,#4D9900);" vertex="1" parent="1">
          <mxGeometry x="890" y="300" width="120" height="60" as="geometry" />
        </mxCell>
        <mxCell id="jrIIb6_KZtd7FNzPWrRN-6" value="CyberHub-Node-5" style="rounded=1;whiteSpace=wrap;html=1;fillColor=light-dark(#FFFFFF,#4D9900);" vertex="1" parent="1">
          <mxGeometry x="890" y="370" width="120" height="60" as="geometry" />
        </mxCell>
        <mxCell id="jrIIb6_KZtd7FNzPWrRN-7" value="CyberHub-Node-6" style="rounded=1;whiteSpace=wrap;html=1;fillColor=light-dark(#FFFFFF,#4D9900);" vertex="1" parent="1">
          <mxGeometry x="890" y="440" width="120" height="60" as="geometry" />
        </mxCell>
        <mxCell id="jrIIb6_KZtd7FNzPWrRN-8" value="CyberHub-Node-7" style="rounded=1;whiteSpace=wrap;html=1;fillColor=light-dark(#FFFFFF,#4D9900);" vertex="1" parent="1">
          <mxGeometry x="890" y="510" width="120" height="60" as="geometry" />
        </mxCell>
        <mxCell id="jrIIb6_KZtd7FNzPWrRN-9" value="CyberHub-Node-8" style="rounded=1;whiteSpace=wrap;html=1;fillColor=light-dark(#FFFFFF,#4D9900);" vertex="1" parent="1">
          <mxGeometry x="890" y="580" width="120" height="60" as="geometry" />
        </mxCell>
        <mxCell id="jrIIb6_KZtd7FNzPWrRN-10" value="CyberHub-Node-9" style="rounded=1;whiteSpace=wrap;html=1;fillColor=light-dark(#FFFFFF,#4D9900);" vertex="1" parent="1">
          <mxGeometry x="890" y="650" width="120" height="60" as="geometry" />
        </mxCell>
        <mxCell id="jrIIb6_KZtd7FNzPWrRN-11" value="CyberHub-Node-10" style="rounded=1;whiteSpace=wrap;html=1;fillColor=light-dark(#FFFFFF,#4D9900);" vertex="1" parent="1">
          <mxGeometry x="890" y="720" width="120" height="60" as="geometry" />
        </mxCell>
        <mxCell id="jrIIb6_KZtd7FNzPWrRN-12" value="CyberHub-Node-11" style="rounded=1;whiteSpace=wrap;html=1;fillColor=light-dark(#FFFFFF,#4D9900);" vertex="1" parent="1">
          <mxGeometry x="890" y="790" width="120" height="60" as="geometry" />
        </mxCell>
        <mxCell id="jrIIb6_KZtd7FNzPWrRN-13" value="CyberHub-Node-12" style="rounded=1;whiteSpace=wrap;html=1;fillColor=light-dark(#FFFFFF,#4D9900);" vertex="1" parent="1">
          <mxGeometry x="890" y="860" width="120" height="60" as="geometry" />
        </mxCell>
        <mxCell id="jrIIb6_KZtd7FNzPWrRN-14" value="&lt;h1 style=&quot;margin-top: 0px;&quot;&gt;CyberHub Proxmox Cluster&lt;/h1&gt;" style="text;html=1;whiteSpace=wrap;overflow=hidden;rounded=0;align=center;" vertex="1" parent="1">
          <mxGeometry x="940" y="50" width="330" height="40" as="geometry" />
        </mxCell>
        <mxCell id="jrIIb6_KZtd7FNzPWrRN-15" value="DockerSwarm-Node-1" style="rounded=1;whiteSpace=wrap;html=1;fontSize=10;fillColor=light-dark(#FFFFFF,#0066CC);" vertex="1" parent="1">
          <mxGeometry x="1080" y="90" width="120" height="30" as="geometry" />
        </mxCell>
        <mxCell id="jrIIb6_KZtd7FNzPWrRN-16" value="Crucible-Node-1" style="rounded=1;whiteSpace=wrap;html=1;fontSize=10;fillColor=light-dark(#FFFFFF,#0066CC);" vertex="1" parent="1">
          <mxGeometry x="1080" y="120" width="120" height="30" as="geometry" />
        </mxCell>
        <mxCell id="jrIIb6_KZtd7FNzPWrRN-17" value="CyberLabs-Node-1" style="rounded=1;whiteSpace=wrap;html=1;fontSize=10;fillColor=light-dark(#FFFFFF,#0066CC);" vertex="1" parent="1">
          <mxGeometry x="1200" y="90" width="120" height="30" as="geometry" />
        </mxCell>
        <mxCell id="jrIIb6_KZtd7FNzPWrRN-18" value="Forge-Node-1" style="rounded=1;whiteSpace=wrap;html=1;fontSize=10;fillColor=light-dark(#FFFFFF,#0066CC);" vertex="1" parent="1">
          <mxGeometry x="1200" y="120" width="120" height="30" as="geometry" />
        </mxCell>
        <mxCell id="jrIIb6_KZtd7FNzPWrRN-19" value="&lt;font style=&quot;font-size: 20px;&quot;&gt;Ceph Storage&lt;/font&gt;" style="rounded=1;whiteSpace=wrap;html=1;horizontal=0;fillColor=light-dark(#FFFFFF,#CC0000);" vertex="1" parent="1">
          <mxGeometry x="1020" y="90" width="50" height="830" as="geometry" />
        </mxCell>
        <mxCell id="jrIIb6_KZtd7FNzPWrRN-20" value="DockerSwarm-Node-2" style="rounded=1;whiteSpace=wrap;html=1;fontSize=10;fillColor=light-dark(#FFFFFF,#0066CC);" vertex="1" parent="1">
          <mxGeometry x="1080" y="160" width="120" height="30" as="geometry" />
        </mxCell>
        <mxCell id="jrIIb6_KZtd7FNzPWrRN-21" value="Crucible-Node-2" style="rounded=1;whiteSpace=wrap;html=1;fontSize=10;fillColor=light-dark(#FFFFFF,#0066CC);" vertex="1" parent="1">
          <mxGeometry x="1080" y="190" width="120" height="30" as="geometry" />
        </mxCell>
        <mxCell id="jrIIb6_KZtd7FNzPWrRN-22" value="CyberLabs-Node-2" style="rounded=1;whiteSpace=wrap;html=1;fontSize=10;fillColor=light-dark(#FFFFFF,#0066CC);" vertex="1" parent="1">
          <mxGeometry x="1200" y="160" width="120" height="30" as="geometry" />
        </mxCell>
        <mxCell id="jrIIb6_KZtd7FNzPWrRN-23" value="Forge-Node-2" style="rounded=1;whiteSpace=wrap;html=1;fontSize=10;fillColor=light-dark(#FFFFFF,#0066CC);" vertex="1" parent="1">
          <mxGeometry x="1200" y="190" width="120" height="30" as="geometry" />
        </mxCell>
        <mxCell id="jrIIb6_KZtd7FNzPWrRN-24" value="DockerSwarm-Node-3" style="rounded=1;whiteSpace=wrap;html=1;fontSize=10;fillColor=light-dark(#FFFFFF,#0066CC);" vertex="1" parent="1">
          <mxGeometry x="1080" y="230" width="120" height="30" as="geometry" />
        </mxCell>
        <mxCell id="jrIIb6_KZtd7FNzPWrRN-25" value="Crucible-Node-3" style="rounded=1;whiteSpace=wrap;html=1;fontSize=10;fillColor=light-dark(#FFFFFF,#0066CC);" vertex="1" parent="1">
          <mxGeometry x="1080" y="260" width="120" height="30" as="geometry" />
        </mxCell>
        <mxCell id="jrIIb6_KZtd7FNzPWrRN-26" value="CyberLabs-Node-3" style="rounded=1;whiteSpace=wrap;html=1;fontSize=10;fillColor=light-dark(#FFFFFF,#0066CC);" vertex="1" parent="1">
          <mxGeometry x="1200" y="230" width="120" height="30" as="geometry" />
        </mxCell>
        <mxCell id="jrIIb6_KZtd7FNzPWrRN-27" value="Forge-Node-3" style="rounded=1;whiteSpace=wrap;html=1;fontSize=10;fillColor=light-dark(#FFFFFF,#0066CC);" vertex="1" parent="1">
          <mxGeometry x="1200" y="260" width="120" height="30" as="geometry" />
        </mxCell>
        <mxCell id="jrIIb6_KZtd7FNzPWrRN-28" value="DockerSwarm-Node-4" style="rounded=1;whiteSpace=wrap;html=1;fontSize=10;fillColor=light-dark(#FFFFFF,#0066CC);" vertex="1" parent="1">
          <mxGeometry x="1080" y="300" width="120" height="30" as="geometry" />
        </mxCell>
        <mxCell id="jrIIb6_KZtd7FNzPWrRN-29" value="Crucible-Node-4" style="rounded=1;whiteSpace=wrap;html=1;fontSize=10;fillColor=light-dark(#FFFFFF,#0066CC);" vertex="1" parent="1">
          <mxGeometry x="1080" y="330" width="120" height="30" as="geometry" />
        </mxCell>
        <mxCell id="jrIIb6_KZtd7FNzPWrRN-30" value="CyberLabs-Node-4" style="rounded=1;whiteSpace=wrap;html=1;fontSize=10;fillColor=light-dark(#FFFFFF,#0066CC);" vertex="1" parent="1">
          <mxGeometry x="1200" y="300" width="120" height="30" as="geometry" />
        </mxCell>
        <mxCell id="jrIIb6_KZtd7FNzPWrRN-31" value="Forge-Node-4" style="rounded=1;whiteSpace=wrap;html=1;fontSize=10;fillColor=light-dark(#FFFFFF,#0066CC);" vertex="1" parent="1">
          <mxGeometry x="1200" y="330" width="120" height="30" as="geometry" />
        </mxCell>
        <mxCell id="jrIIb6_KZtd7FNzPWrRN-32" value="DockerSwarm-Node-5" style="rounded=1;whiteSpace=wrap;html=1;fontSize=10;fillColor=light-dark(#FFFFFF,#0066CC);" vertex="1" parent="1">
          <mxGeometry x="1080" y="370" width="120" height="30" as="geometry" />
        </mxCell>
        <mxCell id="jrIIb6_KZtd7FNzPWrRN-33" value="Crucible-Node-5" style="rounded=1;whiteSpace=wrap;html=1;fontSize=10;fillColor=light-dark(#FFFFFF,#0066CC);" vertex="1" parent="1">
          <mxGeometry x="1080" y="400" width="120" height="30" as="geometry" />
        </mxCell>
        <mxCell id="jrIIb6_KZtd7FNzPWrRN-34" value="CyberLabs-Node-5" style="rounded=1;whiteSpace=wrap;html=1;fontSize=10;fillColor=light-dark(#FFFFFF,#0066CC);" vertex="1" parent="1">
          <mxGeometry x="1200" y="370" width="120" height="30" as="geometry" />
        </mxCell>
        <mxCell id="jrIIb6_KZtd7FNzPWrRN-35" value="Forge-Node-5" style="rounded=1;whiteSpace=wrap;html=1;fontSize=10;fillColor=light-dark(#FFFFFF,#0066CC);" vertex="1" parent="1">
          <mxGeometry x="1200" y="400" width="120" height="30" as="geometry" />
        </mxCell>
        <mxCell id="jrIIb6_KZtd7FNzPWrRN-36" value="DockerSwarm-Node-6" style="rounded=1;whiteSpace=wrap;html=1;fontSize=10;fillColor=light-dark(#FFFFFF,#0066CC);" vertex="1" parent="1">
          <mxGeometry x="1080" y="440" width="120" height="30" as="geometry" />
        </mxCell>
        <mxCell id="jrIIb6_KZtd7FNzPWrRN-37" value="Crucible-Node-6" style="rounded=1;whiteSpace=wrap;html=1;fontSize=10;fillColor=light-dark(#FFFFFF,#0066CC);" vertex="1" parent="1">
          <mxGeometry x="1080" y="470" width="120" height="30" as="geometry" />
        </mxCell>
        <mxCell id="jrIIb6_KZtd7FNzPWrRN-38" value="CyberLabs-Node-6" style="rounded=1;whiteSpace=wrap;html=1;fontSize=10;fillColor=light-dark(#FFFFFF,#0066CC);" vertex="1" parent="1">
          <mxGeometry x="1200" y="440" width="120" height="30" as="geometry" />
        </mxCell>
        <mxCell id="jrIIb6_KZtd7FNzPWrRN-39" value="Forge-Node-6" style="rounded=1;whiteSpace=wrap;html=1;fontSize=10;fillColor=light-dark(#FFFFFF,#0066CC);" vertex="1" parent="1">
          <mxGeometry x="1200" y="470" width="120" height="30" as="geometry" />
        </mxCell>
        <mxCell id="jrIIb6_KZtd7FNzPWrRN-40" value="DockerSwarm-Node-7" style="rounded=1;whiteSpace=wrap;html=1;fontSize=10;fillColor=light-dark(#FFFFFF,#0066CC);" vertex="1" parent="1">
          <mxGeometry x="1080" y="510" width="120" height="30" as="geometry" />
        </mxCell>
        <mxCell id="jrIIb6_KZtd7FNzPWrRN-41" value="Crucible-Node-7" style="rounded=1;whiteSpace=wrap;html=1;fontSize=10;fillColor=light-dark(#FFFFFF,#0066CC);" vertex="1" parent="1">
          <mxGeometry x="1080" y="540" width="120" height="30" as="geometry" />
        </mxCell>
        <mxCell id="jrIIb6_KZtd7FNzPWrRN-42" value="CyberLabs-Node-7" style="rounded=1;whiteSpace=wrap;html=1;fontSize=10;fillColor=light-dark(#FFFFFF,#0066CC);" vertex="1" parent="1">
          <mxGeometry x="1200" y="510" width="120" height="30" as="geometry" />
        </mxCell>
        <mxCell id="jrIIb6_KZtd7FNzPWrRN-43" value="Forge-Node-7" style="rounded=1;whiteSpace=wrap;html=1;fontSize=10;fillColor=light-dark(#FFFFFF,#0066CC);" vertex="1" parent="1">
          <mxGeometry x="1200" y="540" width="120" height="30" as="geometry" />
        </mxCell>
        <mxCell id="jrIIb6_KZtd7FNzPWrRN-44" value="DockerSwarm-Node-8" style="rounded=1;whiteSpace=wrap;html=1;fontSize=10;fillColor=light-dark(#FFFFFF,#0066CC);" vertex="1" parent="1">
          <mxGeometry x="1080" y="580" width="120" height="30" as="geometry" />
        </mxCell>
        <mxCell id="jrIIb6_KZtd7FNzPWrRN-45" value="Crucible-Node-8" style="rounded=1;whiteSpace=wrap;html=1;fontSize=10;fillColor=light-dark(#FFFFFF,#0066CC);" vertex="1" parent="1">
          <mxGeometry x="1080" y="610" width="120" height="30" as="geometry" />
        </mxCell>
        <mxCell id="jrIIb6_KZtd7FNzPWrRN-46" value="CyberLabs-Node-8" style="rounded=1;whiteSpace=wrap;html=1;fontSize=10;fillColor=light-dark(#FFFFFF,#0066CC);" vertex="1" parent="1">
          <mxGeometry x="1200" y="580" width="120" height="30" as="geometry" />
        </mxCell>
        <mxCell id="jrIIb6_KZtd7FNzPWrRN-47" value="Forge-Node-8" style="rounded=1;whiteSpace=wrap;html=1;fontSize=10;fillColor=light-dark(#FFFFFF,#0066CC);" vertex="1" parent="1">
          <mxGeometry x="1200" y="610" width="120" height="30" as="geometry" />
        </mxCell>
        <mxCell id="jrIIb6_KZtd7FNzPWrRN-48" value="DockerSwarm-Node-9" style="rounded=1;whiteSpace=wrap;html=1;fontSize=10;fillColor=light-dark(#FFFFFF,#0066CC);" vertex="1" parent="1">
          <mxGeometry x="1080" y="650" width="120" height="30" as="geometry" />
        </mxCell>
        <mxCell id="jrIIb6_KZtd7FNzPWrRN-49" value="Crucible-Node-9" style="rounded=1;whiteSpace=wrap;html=1;fontSize=10;fillColor=light-dark(#FFFFFF,#0066CC);" vertex="1" parent="1">
          <mxGeometry x="1080" y="680" width="120" height="30" as="geometry" />
        </mxCell>
        <mxCell id="jrIIb6_KZtd7FNzPWrRN-50" value="CyberLabs-Node-9" style="rounded=1;whiteSpace=wrap;html=1;fontSize=10;fillColor=light-dark(#FFFFFF,#0066CC);" vertex="1" parent="1">
          <mxGeometry x="1200" y="650" width="120" height="30" as="geometry" />
        </mxCell>
        <mxCell id="jrIIb6_KZtd7FNzPWrRN-51" value="Forge-Node-9" style="rounded=1;whiteSpace=wrap;html=1;fontSize=10;fillColor=light-dark(#FFFFFF,#0066CC);" vertex="1" parent="1">
          <mxGeometry x="1200" y="680" width="120" height="30" as="geometry" />
        </mxCell>
        <mxCell id="jrIIb6_KZtd7FNzPWrRN-52" value="DockerSwarm-Node-10" style="rounded=1;whiteSpace=wrap;html=1;fontSize=10;fillColor=light-dark(#FFFFFF,#0066CC);" vertex="1" parent="1">
          <mxGeometry x="1080" y="720" width="120" height="30" as="geometry" />
        </mxCell>
        <mxCell id="jrIIb6_KZtd7FNzPWrRN-53" value="Crucible-Node-10" style="rounded=1;whiteSpace=wrap;html=1;fontSize=10;fillColor=light-dark(#FFFFFF,#0066CC);" vertex="1" parent="1">
          <mxGeometry x="1080" y="750" width="120" height="30" as="geometry" />
        </mxCell>
        <mxCell id="jrIIb6_KZtd7FNzPWrRN-54" value="CyberLabs-Node-10" style="rounded=1;whiteSpace=wrap;html=1;fontSize=10;fillColor=light-dark(#FFFFFF,#0066CC);" vertex="1" parent="1">
          <mxGeometry x="1200" y="720" width="120" height="30" as="geometry" />
        </mxCell>
        <mxCell id="jrIIb6_KZtd7FNzPWrRN-55" value="Forge-Node-10" style="rounded=1;whiteSpace=wrap;html=1;fontSize=10;fillColor=light-dark(#FFFFFF,#0066CC);" vertex="1" parent="1">
          <mxGeometry x="1200" y="750" width="120" height="30" as="geometry" />
        </mxCell>
        <mxCell id="jrIIb6_KZtd7FNzPWrRN-56" value="DockerSwarm-Node-11" style="rounded=1;whiteSpace=wrap;html=1;fontSize=10;fillColor=light-dark(#FFFFFF,#0066CC);" vertex="1" parent="1">
          <mxGeometry x="1080" y="790" width="120" height="30" as="geometry" />
        </mxCell>
        <mxCell id="jrIIb6_KZtd7FNzPWrRN-57" value="Crucible-Node-11" style="rounded=1;whiteSpace=wrap;html=1;fontSize=10;fillColor=light-dark(#FFFFFF,#0066CC);" vertex="1" parent="1">
          <mxGeometry x="1080" y="820" width="120" height="30" as="geometry" />
        </mxCell>
        <mxCell id="jrIIb6_KZtd7FNzPWrRN-58" value="CyberLabs-Node-11" style="rounded=1;whiteSpace=wrap;html=1;fontSize=10;fillColor=light-dark(#FFFFFF,#0066CC);" vertex="1" parent="1">
          <mxGeometry x="1200" y="790" width="120" height="30" as="geometry" />
        </mxCell>
        <mxCell id="jrIIb6_KZtd7FNzPWrRN-59" value="Forge-Node-11" style="rounded=1;whiteSpace=wrap;html=1;fontSize=10;fillColor=light-dark(#FFFFFF,#0066CC);" vertex="1" parent="1">
          <mxGeometry x="1200" y="820" width="120" height="30" as="geometry" />
        </mxCell>
        <mxCell id="jrIIb6_KZtd7FNzPWrRN-60" value="DockerSwarm-Node-12" style="rounded=1;whiteSpace=wrap;html=1;fontSize=10;fillColor=light-dark(#FFFFFF,#0066CC);" vertex="1" parent="1">
          <mxGeometry x="1080" y="860" width="120" height="30" as="geometry" />
        </mxCell>
        <mxCell id="jrIIb6_KZtd7FNzPWrRN-61" value="Crucible-Node-12" style="rounded=1;whiteSpace=wrap;html=1;fontSize=10;fillColor=light-dark(#FFFFFF,#0066CC);" vertex="1" parent="1">
          <mxGeometry x="1080" y="890" width="120" height="30" as="geometry" />
        </mxCell>
        <mxCell id="jrIIb6_KZtd7FNzPWrRN-62" value="CyberLabs-Node-12" style="rounded=1;whiteSpace=wrap;html=1;fontSize=10;fillColor=light-dark(#FFFFFF,#0066CC);" vertex="1" parent="1">
          <mxGeometry x="1200" y="860" width="120" height="30" as="geometry" />
        </mxCell>
        <mxCell id="jrIIb6_KZtd7FNzPWrRN-63" value="Forge-Node-12" style="rounded=1;whiteSpace=wrap;html=1;fontSize=10;fillColor=light-dark(#FFFFFF,#0066CC);" vertex="1" parent="1">
          <mxGeometry x="1200" y="890" width="120" height="30" as="geometry" />
        </mxCell>
        <mxCell id="jrIIb6_KZtd7FNzPWrRN-64" value="&lt;div&gt;&lt;font style=&quot;font-size: 24px;&quot;&gt;&lt;b&gt;Docker Swarm Cluster&lt;/b&gt;&lt;/font&gt;&lt;/div&gt;&lt;div&gt;&lt;font style=&quot;font-size: 24px;&quot;&gt;&lt;b&gt;&lt;br&gt;&lt;/b&gt;&lt;/font&gt;&lt;/div&gt;&lt;div&gt;&lt;font style=&quot;font-size: 24px;&quot;&gt;&lt;b&gt;&lt;br&gt;&lt;/b&gt;&lt;/font&gt;&lt;/div&gt;&lt;div&gt;&lt;font style=&quot;font-size: 24px;&quot;&gt;&lt;b&gt;&lt;br&gt;&lt;/b&gt;&lt;/font&gt;&lt;/div&gt;&lt;div&gt;&lt;font style=&quot;font-size: 24px;&quot;&gt;&lt;b&gt;&lt;br&gt;&lt;/b&gt;&lt;/font&gt;&lt;/div&gt;&lt;div&gt;&lt;font style=&quot;font-size: 24px;&quot;&gt;&lt;b&gt;&lt;br&gt;&lt;/b&gt;&lt;/font&gt;&lt;/div&gt;" style="rounded=1;whiteSpace=wrap;html=1;fillColor=#1ba1e2;strokeColor=#006EAF;arcSize=6;fontColor=#ffffff;" vertex="1" parent="1">
          <mxGeometry x="1360" y="40" width="200" height="200" as="geometry" />
        </mxCell>
        <mxCell id="jrIIb6_KZtd7FNzPWrRN-65" value="&lt;div&gt;&lt;font style=&quot;font-size: 24px;&quot;&gt;&lt;b&gt;Forge Proxmox Cluster&lt;/b&gt;&lt;/font&gt;&lt;/div&gt;&lt;div&gt;&lt;font style=&quot;font-size: 24px;&quot;&gt;&lt;b&gt;&lt;br&gt;&lt;/b&gt;&lt;/font&gt;&lt;/div&gt;&lt;div&gt;&lt;font style=&quot;font-size: 24px;&quot;&gt;&lt;b&gt;&lt;br&gt;&lt;/b&gt;&lt;/font&gt;&lt;/div&gt;&lt;div&gt;&lt;font style=&quot;font-size: 24px;&quot;&gt;&lt;b&gt;&lt;br&gt;&lt;/b&gt;&lt;/font&gt;&lt;/div&gt;&lt;div&gt;&lt;font style=&quot;font-size: 24px;&quot;&gt;&lt;b&gt;&lt;br&gt;&lt;/b&gt;&lt;/font&gt;&lt;/div&gt;&lt;div&gt;&lt;font style=&quot;font-size: 24px;&quot;&gt;&lt;b&gt;&lt;br&gt;&lt;/b&gt;&lt;/font&gt;&lt;/div&gt;" style="rounded=1;whiteSpace=wrap;html=1;fillColor=#647687;strokeColor=#314354;arcSize=5;fontColor=#ffffff;" vertex="1" parent="1">
          <mxGeometry x="1360" y="730" width="200" height="200" as="geometry" />
        </mxCell>
        <mxCell id="jrIIb6_KZtd7FNzPWrRN-66" value="&lt;div&gt;&lt;font style=&quot;font-size: 24px;&quot;&gt;&lt;b&gt;Crucible Proxmox Cluster&lt;/b&gt;&lt;br&gt;&lt;/font&gt;&lt;/div&gt;&lt;div&gt;&lt;font style=&quot;font-size: 24px;&quot;&gt;&lt;br&gt;&lt;/font&gt;&lt;/div&gt;&lt;div&gt;&lt;font style=&quot;font-size: 24px;&quot;&gt;&lt;br&gt;&lt;/font&gt;&lt;/div&gt;&lt;div&gt;&lt;font style=&quot;font-size: 24px;&quot;&gt;&lt;br&gt;&lt;/font&gt;&lt;/div&gt;&lt;div&gt;&lt;font style=&quot;font-size: 24px;&quot;&gt;&lt;br&gt;&lt;/font&gt;&lt;/div&gt;&lt;div&gt;&lt;font style=&quot;font-size: 24px;&quot;&gt;&lt;br&gt;&lt;/font&gt;&lt;/div&gt;" style="rounded=1;whiteSpace=wrap;html=1;fillColor=light-dark(#647687,#990000);strokeColor=light-dark(#000000,#990000);arcSize=5;fontColor=#ffffff;" vertex="1" parent="1">
          <mxGeometry x="1360" y="500" width="200" height="200" as="geometry" />
        </mxCell>
        <mxCell id="jrIIb6_KZtd7FNzPWrRN-67" value="&lt;div&gt;&lt;font style=&quot;font-size: 24px;&quot;&gt;&lt;b&gt;CyberLabs Proxmox Cluster&lt;/b&gt;&lt;/font&gt;&lt;/div&gt;&lt;div&gt;&lt;font style=&quot;font-size: 24px;&quot;&gt;&lt;b&gt;&lt;br&gt;&lt;/b&gt;&lt;/font&gt;&lt;/div&gt;&lt;div&gt;&lt;font style=&quot;font-size: 24px;&quot;&gt;&lt;b&gt;&lt;br&gt;&lt;/b&gt;&lt;/font&gt;&lt;/div&gt;&lt;div&gt;&lt;font style=&quot;font-size: 24px;&quot;&gt;&lt;b&gt;&lt;br&gt;&lt;/b&gt;&lt;/font&gt;&lt;/div&gt;&lt;div&gt;&lt;font style=&quot;font-size: 24px;&quot;&gt;&lt;b&gt;&lt;br&gt;&lt;/b&gt;&lt;/font&gt;&lt;/div&gt;&lt;div&gt;&lt;font style=&quot;font-size: 24px;&quot;&gt;&lt;b&gt;&lt;br&gt;&lt;/b&gt;&lt;/font&gt;&lt;/div&gt;" style="rounded=1;whiteSpace=wrap;html=1;fillColor=#f0a30a;strokeColor=#BD7000;arcSize=6;fontColor=#000000;" vertex="1" parent="1">
          <mxGeometry x="1360" y="270" width="200" height="200" as="geometry" />
        </mxCell>
        <mxCell id="jrIIb6_KZtd7FNzPWrRN-68" value="&lt;div&gt;&lt;font&gt;Debian VM w/ KVM/QEMU &amp;amp; Cockpit&lt;/font&gt;&lt;/div&gt;&lt;div&gt;&lt;font&gt;&lt;br&gt;&lt;/font&gt;&lt;/div&gt;&lt;div&gt;&lt;font&gt;user-1&lt;/font&gt;&lt;/div&gt;" style="rounded=1;whiteSpace=wrap;html=1;fontSize=10;fillColor=light-dark(#F8CECC,#990000);strokeColor=default;gradientColor=none;" vertex="1" parent="1">
          <mxGeometry x="1370" y="335" width="90" height="60" as="geometry" />
        </mxCell>
        <mxCell id="jrIIb6_KZtd7FNzPWrRN-69" value="&lt;div&gt;&lt;font&gt;Debian VM w/ KVM/QEMU &amp;amp; Cockpit&lt;/font&gt;&lt;/div&gt;&lt;div&gt;&lt;font&gt;&lt;br&gt;&lt;/font&gt;&lt;/div&gt;&lt;div&gt;&lt;font&gt;user-2&lt;/font&gt;&lt;/div&gt;" style="rounded=1;whiteSpace=wrap;html=1;fontSize=10;fillColor=light-dark(#F8CECC,#990000);strokeColor=default;gradientColor=none;" vertex="1" parent="1">
          <mxGeometry x="1460" y="335" width="90" height="60" as="geometry" />
        </mxCell>
        <mxCell id="jrIIb6_KZtd7FNzPWrRN-70" value="&lt;div&gt;&lt;font&gt;Debian VM w/ KVM/QEMU &amp;amp; Cockpit&lt;/font&gt;&lt;/div&gt;&lt;div&gt;&lt;font&gt;&lt;br&gt;&lt;/font&gt;&lt;/div&gt;&lt;div&gt;&lt;font&gt;user-3&lt;/font&gt;&lt;/div&gt;" style="rounded=1;whiteSpace=wrap;html=1;fontSize=10;fillColor=light-dark(#F8CECC,#990000);strokeColor=default;gradientColor=none;" vertex="1" parent="1">
          <mxGeometry x="1370" y="395" width="90" height="60" as="geometry" />
        </mxCell>
        <mxCell id="jrIIb6_KZtd7FNzPWrRN-71" value="&lt;div&gt;&lt;font&gt;Debian VM w/ KVM/QEMU &amp;amp; Cockpit&lt;/font&gt;&lt;/div&gt;&lt;div&gt;&lt;font&gt;&lt;br&gt;&lt;/font&gt;&lt;/div&gt;&lt;div&gt;&lt;font&gt;user-n&lt;/font&gt;&lt;/div&gt;" style="rounded=1;whiteSpace=wrap;html=1;fontSize=10;fillColor=light-dark(#F8CECC,#990000);strokeColor=default;gradientColor=none;" vertex="1" parent="1">
          <mxGeometry x="1460" y="395" width="90" height="60" as="geometry" />
        </mxCell>
        <mxCell id="jrIIb6_KZtd7FNzPWrRN-72" value="&lt;div&gt;&lt;font&gt;Debian VM w/ KVM/QEMU &amp;amp; Cockpit&lt;/font&gt;&lt;/div&gt;&lt;div&gt;&lt;font&gt;&lt;br&gt;&lt;/font&gt;&lt;/div&gt;&lt;div&gt;&lt;font&gt;user-1&lt;/font&gt;&lt;/div&gt;" style="rounded=1;whiteSpace=wrap;html=1;fontSize=10;fillColor=light-dark(#F8CECC,#990000);strokeColor=default;gradientColor=none;" vertex="1" parent="1">
          <mxGeometry x="1370" y="796" width="90" height="60" as="geometry" />
        </mxCell>
        <mxCell id="jrIIb6_KZtd7FNzPWrRN-73" value="&lt;div&gt;&lt;font&gt;Debian VM w/ KVM/QEMU &amp;amp; Cockpit&lt;/font&gt;&lt;/div&gt;&lt;div&gt;&lt;font&gt;&lt;br&gt;&lt;/font&gt;&lt;/div&gt;&lt;div&gt;&lt;font&gt;user-2&lt;/font&gt;&lt;/div&gt;" style="rounded=1;whiteSpace=wrap;html=1;fontSize=10;fillColor=light-dark(#F8CECC,#990000);strokeColor=default;gradientColor=none;" vertex="1" parent="1">
          <mxGeometry x="1460" y="796" width="90" height="60" as="geometry" />
        </mxCell>
        <mxCell id="jrIIb6_KZtd7FNzPWrRN-74" value="&lt;div&gt;&lt;font&gt;Debian VM w/ KVM/QEMU &amp;amp; Cockpit&lt;/font&gt;&lt;/div&gt;&lt;div&gt;&lt;font&gt;&lt;br&gt;&lt;/font&gt;&lt;/div&gt;&lt;div&gt;&lt;font&gt;user-3&lt;/font&gt;&lt;/div&gt;" style="rounded=1;whiteSpace=wrap;html=1;fontSize=10;fillColor=light-dark(#F8CECC,#990000);strokeColor=default;gradientColor=none;" vertex="1" parent="1">
          <mxGeometry x="1370" y="856" width="90" height="60" as="geometry" />
        </mxCell>
        <mxCell id="jrIIb6_KZtd7FNzPWrRN-75" value="&lt;div&gt;&lt;font&gt;Debian VM w/ KVM/QEMU &amp;amp; Cockpit&lt;/font&gt;&lt;/div&gt;&lt;div&gt;&lt;font&gt;&lt;br&gt;&lt;/font&gt;&lt;/div&gt;&lt;div&gt;&lt;font&gt;user-n&lt;/font&gt;&lt;/div&gt;" style="rounded=1;whiteSpace=wrap;html=1;fontSize=10;fillColor=light-dark(#F8CECC,#990000);strokeColor=default;gradientColor=none;" vertex="1" parent="1">
          <mxGeometry x="1460" y="856" width="90" height="60" as="geometry" />
        </mxCell>
        <mxCell id="jrIIb6_KZtd7FNzPWrRN-76" value="Docker container 1" style="rounded=1;whiteSpace=wrap;html=1;fontSize=10;fillColor=light-dark(#FFFFFF,#0000CC);strokeColor=#36393d;" vertex="1" parent="1">
          <mxGeometry x="1370" y="105" width="90" height="25" as="geometry" />
        </mxCell>
        <mxCell id="jrIIb6_KZtd7FNzPWrRN-77" value="Docker container 2" style="rounded=1;whiteSpace=wrap;html=1;fontSize=10;fillColor=light-dark(#FFFFFF,#0000CC);strokeColor=#36393d;" vertex="1" parent="1">
          <mxGeometry x="1460" y="105" width="90" height="25" as="geometry" />
        </mxCell>
        <mxCell id="jrIIb6_KZtd7FNzPWrRN-78" value="Docker container 3" style="rounded=1;whiteSpace=wrap;html=1;fontSize=10;fillColor=light-dark(#FFFFFF,#0000CC);strokeColor=#36393d;" vertex="1" parent="1">
          <mxGeometry x="1370" y="130" width="90" height="25" as="geometry" />
        </mxCell>
        <mxCell id="jrIIb6_KZtd7FNzPWrRN-79" value="Docker container 4" style="rounded=1;whiteSpace=wrap;html=1;fontSize=10;fillColor=light-dark(#FFFFFF,#0000CC);strokeColor=#36393d;" vertex="1" parent="1">
          <mxGeometry x="1460" y="130" width="90" height="25" as="geometry" />
        </mxCell>
        <mxCell id="jrIIb6_KZtd7FNzPWrRN-80" value="Docker container 5" style="rounded=1;whiteSpace=wrap;html=1;fontSize=10;fillColor=light-dark(#FFFFFF,#0000CC);strokeColor=#36393d;" vertex="1" parent="1">
          <mxGeometry x="1370" y="155" width="90" height="25" as="geometry" />
        </mxCell>
        <mxCell id="jrIIb6_KZtd7FNzPWrRN-81" value="Docker container 6" style="rounded=1;whiteSpace=wrap;html=1;fontSize=10;fillColor=light-dark(#FFFFFF,#0000CC);strokeColor=#36393d;" vertex="1" parent="1">
          <mxGeometry x="1460" y="155" width="90" height="25" as="geometry" />
        </mxCell>
        <mxCell id="jrIIb6_KZtd7FNzPWrRN-82" value="Docker container 7" style="rounded=1;whiteSpace=wrap;html=1;fontSize=10;fillColor=light-dark(#FFFFFF,#0000CC);strokeColor=#36393d;" vertex="1" parent="1">
          <mxGeometry x="1370" y="180" width="90" height="25" as="geometry" />
        </mxCell>
        <mxCell id="jrIIb6_KZtd7FNzPWrRN-83" value="Docker container 8" style="rounded=1;whiteSpace=wrap;html=1;fontSize=10;fillColor=light-dark(#FFFFFF,#0000CC);strokeColor=#36393d;" vertex="1" parent="1">
          <mxGeometry x="1460" y="180" width="90" height="25" as="geometry" />
        </mxCell>
        <mxCell id="jrIIb6_KZtd7FNzPWrRN-84" value="Docker container 9" style="rounded=1;whiteSpace=wrap;html=1;fontSize=10;fillColor=light-dark(#FFFFFF,#0000CC);strokeColor=#36393d;" vertex="1" parent="1">
          <mxGeometry x="1370" y="205" width="90" height="25" as="geometry" />
        </mxCell>
        <mxCell id="jrIIb6_KZtd7FNzPWrRN-85" value="Docker container n" style="rounded=1;whiteSpace=wrap;html=1;fontSize=10;fillColor=light-dark(#FFFFFF,#0000CC);strokeColor=#36393d;" vertex="1" parent="1">
          <mxGeometry x="1460" y="205" width="90" height="25" as="geometry" />
        </mxCell>
        <mxCell id="jrIIb6_KZtd7FNzPWrRN-86" value="Crucible-Node-1" style="rounded=1;whiteSpace=wrap;html=1;fontSize=10;fillColor=light-dark(#FFFFFF,#0066CC);" vertex="1" parent="1">
          <mxGeometry x="1370" y="565" width="90" height="20" as="geometry" />
        </mxCell>
        <mxCell id="jrIIb6_KZtd7FNzPWrRN-87" value="Crucible-Node-2" style="rounded=1;whiteSpace=wrap;html=1;fontSize=10;fillColor=light-dark(#FFFFFF,#0066CC);" vertex="1" parent="1">
          <mxGeometry x="1460" y="565" width="90" height="20" as="geometry" />
        </mxCell>
        <mxCell id="jrIIb6_KZtd7FNzPWrRN-88" value="Crucible-Node-3" style="rounded=1;whiteSpace=wrap;html=1;fontSize=10;fillColor=light-dark(#FFFFFF,#0066CC);" vertex="1" parent="1">
          <mxGeometry x="1370" y="585" width="90" height="20" as="geometry" />
        </mxCell>
        <mxCell id="jrIIb6_KZtd7FNzPWrRN-89" value="Crucible-Node-4" style="rounded=1;whiteSpace=wrap;html=1;fontSize=10;fillColor=light-dark(#FFFFFF,#0066CC);" vertex="1" parent="1">
          <mxGeometry x="1460" y="585" width="90" height="20" as="geometry" />
        </mxCell>
        <mxCell id="jrIIb6_KZtd7FNzPWrRN-90" value="Crucible-Node-5" style="rounded=1;whiteSpace=wrap;html=1;fontSize=10;fillColor=light-dark(#FFFFFF,#0066CC);" vertex="1" parent="1">
          <mxGeometry x="1370" y="605" width="90" height="20" as="geometry" />
        </mxCell>
        <mxCell id="jrIIb6_KZtd7FNzPWrRN-91" value="Crucible-Node-6" style="rounded=1;whiteSpace=wrap;html=1;fontSize=10;fillColor=light-dark(#FFFFFF,#0066CC);" vertex="1" parent="1">
          <mxGeometry x="1460" y="605" width="90" height="20" as="geometry" />
        </mxCell>
        <mxCell id="jrIIb6_KZtd7FNzPWrRN-92" value="Crucible-Node-7" style="rounded=1;whiteSpace=wrap;html=1;fontSize=10;fillColor=light-dark(#FFFFFF,#0066CC);" vertex="1" parent="1">
          <mxGeometry x="1370" y="625" width="90" height="20" as="geometry" />
        </mxCell>
        <mxCell id="jrIIb6_KZtd7FNzPWrRN-93" value="Crucible-Node-8" style="rounded=1;whiteSpace=wrap;html=1;fontSize=10;fillColor=light-dark(#FFFFFF,#0066CC);" vertex="1" parent="1">
          <mxGeometry x="1460" y="625" width="90" height="20" as="geometry" />
        </mxCell>
        <mxCell id="jrIIb6_KZtd7FNzPWrRN-94" value="Crucible-Node-9" style="rounded=1;whiteSpace=wrap;html=1;fontSize=10;fillColor=light-dark(#FFFFFF,#0066CC);" vertex="1" parent="1">
          <mxGeometry x="1370" y="645" width="90" height="20" as="geometry" />
        </mxCell>
        <mxCell id="jrIIb6_KZtd7FNzPWrRN-95" value="Crucible-Node-10" style="rounded=1;whiteSpace=wrap;html=1;fontSize=10;fillColor=light-dark(#FFFFFF,#0066CC);" vertex="1" parent="1">
          <mxGeometry x="1460" y="645" width="90" height="20" as="geometry" />
        </mxCell>
        <mxCell id="jrIIb6_KZtd7FNzPWrRN-96" value="Crucible-Node-11" style="rounded=1;whiteSpace=wrap;html=1;fontSize=10;fillColor=light-dark(#FFFFFF,#0066CC);" vertex="1" parent="1">
          <mxGeometry x="1370" y="665" width="90" height="20" as="geometry" />
        </mxCell>
        <mxCell id="jrIIb6_KZtd7FNzPWrRN-97" value="Crucible-Node-12" style="rounded=1;whiteSpace=wrap;html=1;fontSize=10;fillColor=light-dark(#FFFFFF,#0066CC);" vertex="1" parent="1">
          <mxGeometry x="1460" y="665" width="90" height="20" as="geometry" />
        </mxCell>
      </root>
    </mxGraphModel>
  </diagram>
</mxfile>
